# xmcd
#
# Track frame offsets:
#	150
#	34849
#	59074
#	93249
#	106106
#	134546
#	152978
#	162151
#	181010
#	193919
#	207032
#	255381
#	296270
#	316998
#
# Disc length: 4521 seconds
#
# Revision: 1
# Processed by: cddbd v1.5.2PL0 Copyright (c) Steve Scherf et al.
# Submitted via: audiograbber 1.83.01
#
DISCID=bf11a70e
DTITLE=Grateful Dead - 73-10-23 Metropolitan Sports Centre, Bloomington IL
DYEAR=1900
DGENRE=
TTITLE0=China Cat Sunflower
TTITLE1=I Know You Rider
TTITLE2=Truckin
TTITLE3=Nobody's Fault Jam
TTITLE4=Jam
TTITLE5=The Other One
TTITLE6=Drums
TTITLE7=Space
TTITLE8=WRS Prelude
TTITLE9=WRS Part One
TTITLE10=Let It Grow
TTITLE11=Sugar Magnolia
TTITLE12=Casey Jones
TTITLE13=One More Saturday Night
EXTD=
EXTT0=
EXTT1=
EXTT2=
EXTT3=
EXTT4=
EXTT5=
EXTT6=
EXTT7=
EXTT8=
EXTT9=
EXTT10=
EXTT11=
EXTT12=
EXTT13=
PLAYORDER=
